<?xml version="1.0" encoding="UTF-8"?>
<svg id="Layer_1" xmlns="http://www.w3.org/2000/svg" width="158.72" height="317.43" version="1.1" viewBox="0 0 158.72 317.43">
  <!-- Generator: Adobe Illustrator 29.2.1, SVG Export Plug-In . SVG Version: 2.1.0 Build 116)  -->
  <defs>
    <style>
      .st0 {
        fill: #0a0a0a;
      }

      .st1 {
        fill: #49484c;
      }

      .st2 {
        fill: #0d1d3c;
      }

      .st3 {
        fill: #485161;
      }

      .st4 {
        fill: #09609e;
      }

      .st5 {
        fill: #313640;
      }

      .st6 {
        fill: #cebcb1;
      }

      .st7 {
        fill: #053659;
      }

      .st8 {
        fill: #074775;
      }

      .st9 {
        fill: #2e2e2e;
      }
    </style>
  </defs>
  <rect class="st7" x="2.03" y=".68" width="154.65" height="316.08" rx="26.14" ry="26.14"/>
  <path class="st8" d="M130.55,317.43H28.17c-14.79,0-26.82-12.03-26.82-26.82V26.82C1.35,12.03,13.38,0,28.17,0h102.38c14.79,0,26.82,12.03,26.82,26.82v263.8c0,14.79-12.03,26.82-26.82,26.82ZM28.17,1.35C14.13,1.35,2.71,12.78,2.71,26.82v263.8c0,14.04,11.42,25.46,25.46,25.46h102.38c14.04,0,25.46-11.42,25.46-25.46V26.82c0-14.04-11.42-25.46-25.46-25.46H28.17Z"/>
  <g>
    <rect class="st8" x="9.81" y="8.46" width="72.94" height="69.04" rx="18.64" ry="18.64"/>
    <path class="st4" d="M64.12,77.75H28.45c-10.42,0-18.89-8.48-18.89-18.89v-31.76c0-10.42,8.48-18.89,18.89-18.89h35.67c10.42,0,18.89,8.48,18.89,18.89v31.76c0,10.42-8.48,18.89-18.89,18.89ZM28.45,8.71c-10.14,0-18.39,8.25-18.39,18.39v31.76c0,10.14,8.25,18.39,18.39,18.39h35.67c10.14,0,18.39-8.25,18.39-18.39v-31.76c0-10.14-8.25-18.39-18.39-18.39H28.45Z"/>
  </g>
  <path class="st7" d="M1.35,127.92h0c-.75,0-1.35-.61-1.35-1.35v-39.93c0-.75.61-1.35,1.35-1.35h0v42.64Z"/>
  <path class="st7" d="M157.36,75.47h0c.75,0,1.35.61,1.35,1.35v23.69c0,.75-.61,1.35-1.35,1.35h0v-26.4Z"/>
  <path class="st7" d="M157.36,50.42h0c.75,0,1.35.61,1.35,1.35v10.83c0,.75-.61,1.35-1.35,1.35h0v-13.54Z"/>
  <path class="st7" d="M157.36,109.31h0c.75,0,1.35.61,1.35,1.35v23.69c0,.75-.61,1.35-1.35,1.35h0v-26.4Z"/>
  <circle class="st1" cx="27.75" cy="57.53" r="14.55" transform="translate(-35 69.44) rotate(-75)"/>
  <circle class="st0" cx="27.75" cy="57.53" r="11.84" transform="translate(-35.01 69.42) rotate(-74.98)"/>
  <path class="st2" d="M32.15,57.53c0,2.43-1.97,4.4-4.4,4.4s-4.4-1.97-4.4-4.4,1.97-4.4,4.4-4.4,4.4,1.97,4.4,4.4Z"/>
  <path class="st6" d="M72.24,18.32c0,3.55-2.88,6.43-6.43,6.43s-6.43-2.88-6.43-6.43,2.88-6.43,6.43-6.43,6.43,2.88,6.43,6.43Z"/>
  <circle class="st9" cx="75.48" cy="64.77" r="2.46"/>
  <path class="st4" d="M27.8,72.33c-8.16,0-14.8-6.64-14.8-14.8s6.64-14.8,14.8-14.8,14.8,6.64,14.8,14.8-6.64,14.8-14.8,14.8ZM27.8,43.23c-7.89,0-14.3,6.42-14.3,14.3s6.42,14.3,14.3,14.3,14.3-6.42,14.3-14.3-6.42-14.3-14.3-14.3Z"/>
  <circle class="st5" cx="27.75" cy="57.53" r="3.52"/>
  <g>
    <circle class="st1" cx="27.75" cy="25.72" r="14.55" transform="translate(-4.28 45.87) rotate(-75)"/>
    <circle class="st0" cx="27.75" cy="25.72" r="11.84" transform="translate(-4.28 45.86) rotate(-74.98)"/>
    <path class="st2" d="M32.15,25.72c0,2.43-1.97,4.4-4.4,4.4s-4.4-1.97-4.4-4.4,1.97-4.4,4.4-4.4,4.4,1.97,4.4,4.4Z"/>
    <path class="st4" d="M27.8,40.52c-8.16,0-14.8-6.64-14.8-14.8s6.64-14.8,14.8-14.8,14.8,6.64,14.8,14.8-6.64,14.8-14.8,14.8ZM27.8,11.42c-7.89,0-14.3,6.42-14.3,14.3s6.42,14.3,14.3,14.3,14.3-6.42,14.3-14.3-6.42-14.3-14.3-14.3Z"/>
    <circle class="st5" cx="27.75" cy="25.72" r="3.52"/>
    <path class="st3" d="M28.85,25.72c0,.61-.49,1.1-1.1,1.1s-1.1-.49-1.1-1.1.49-1.1,1.1-1.1,1.1.49,1.1,1.1Z"/>
  </g>
  <g>
    <circle class="st1" cx="57.75" cy="41.72" r="14.55" transform="translate(2.51 86.7) rotate(-75)"/>
    <circle class="st0" cx="57.75" cy="41.72" r="11.84" transform="translate(2.49 86.69) rotate(-74.98)"/>
    <path class="st2" d="M62.15,41.72c0,2.43-1.97,4.4-4.4,4.4s-4.4-1.97-4.4-4.4,1.97-4.4,4.4-4.4,4.4,1.97,4.4,4.4Z"/>
    <path class="st4" d="M57.8,56.52c-8.16,0-14.8-6.64-14.8-14.8s6.64-14.8,14.8-14.8,14.8,6.64,14.8,14.8-6.64,14.8-14.8,14.8ZM57.8,27.42c-7.89,0-14.3,6.42-14.3,14.3s6.42,14.3,14.3,14.3,14.3-6.42,14.3-14.3-6.42-14.3-14.3-14.3Z"/>
    <circle class="st5" cx="57.75" cy="41.72" r="3.52"/>
    <path class="st3" d="M58.85,41.72c0,.61-.49,1.1-1.1,1.1s-1.1-.49-1.1-1.1.49-1.1,1.1-1.1,1.1.49,1.1,1.1Z"/>
  </g>
  <path class="st3" d="M28.85,57.53c0,.61-.49,1.1-1.1,1.1s-1.1-.49-1.1-1.1.49-1.1,1.1-1.1,1.1.49,1.1,1.1Z"/>
</svg>